HIERARCHY
ROOT Hips
{
	OFFSET 0.00 0.00 0.00
	CHANNELS 6 Xposition Yposition Zposition Xrotation Yrotation Zrotation
	JOINT Spine
	{
		OFFSET 0.00000 7.06031 0.00000
		CHANNELS 3 Xrotation Yrotation Zrotation
		JOINT Head
		{
			OFFSET 0.00000 15.03984 0.00000
			CHANNELS 3 Xrotation Yrotation Zrotation
			End Site
			{
				OFFSET 0.00000 4.52755 0.00000
			}
		}
		JOINT LeftShoulder
		{
			OFFSET 0.00000 10.53012 0.00000
			CHANNELS 3 Xrotation Yrotation Zrotation
			JOINT LeftArm
			{
				OFFSET 7.02874 0.00000 0.00000
				CHANNELS 3 Xrotation Yrotation Zrotation
				JOINT LeftForeArm
				{
					OFFSET 10.79805 0.00000 0.00000
					CHANNELS 3 Zrotation Yrotation Xrotation
					JOINT LeftHand
					{
						OFFSET 7.90723 0.00000 0.00000
						CHANNELS 3 Xrotation Yrotation Zrotation
						JOINT LeftHandThumb1
						{
							OFFSET 0.00000 0.00000 0.00000
							CHANNELS 3 Xrotation Yrotation Zrotation
							End Site
							{
								OFFSET 0.00000 0.00000 3.93700
							}
						}
						End Site
						{
							OFFSET 3.93700 0.00000 0.00000
						}
					}
				}
			}
		}
		JOINT RightShoulder
		{
			OFFSET 0.00000 10.53012 0.00000
			CHANNELS 3 Xrotation Yrotation Zrotation
			JOINT RightArm
			{
				OFFSET -7.02874 0.00000 0.00000
				CHANNELS 3 Xrotation Yrotation Zrotation
				JOINT RightForeArm
				{
					OFFSET -10.79805 0.00000 0.00000
					CHANNELS 3 Zrotation Yrotation Xrotation
					JOINT RightHand
					{
						OFFSET -7.90723 0.00000 0.00000
						CHANNELS 3 Xrotation Yrotation Zrotation
						JOINT RightHandThumb1
						{
							OFFSET 0.00000 0.00000 0.00000
							CHANNELS 3 Xrotation Yrotation Zrotation
							End Site
							{
								OFFSET 0.00000 0.00000 3.93700
							}
						}
						End Site
						{
							OFFSET -3.93700 0.00000 0.00000
						}
					}
				}
			}
		}
	}
	JOINT LeftUpLeg
	{
		OFFSET 4.01164 0.00000 0.00000
		CHANNELS 3 Xrotation Yrotation Zrotation
		JOINT LeftLeg
		{
			OFFSET 0.00000 -16.90780 0.00000
			CHANNELS 3 Xrotation Yrotation Zrotation
			JOINT LeftFoot
			{
				OFFSET 0.00000 -17.38735 0.00000
				CHANNELS 3 Xrotation Yrotation Zrotation
				JOINT LeftToeBase
				{
					OFFSET 0.00000 -1.27464 4.75702
					CHANNELS 3 Xrotation Yrotation Zrotation
					End Site
					{
						OFFSET 0.00000 0.00000 2.95275
					}
				}
			}
		}
	}
	JOINT RightUpLeg
	{
		OFFSET -4.01164 0.00000 0.00000
		CHANNELS 3 Xrotation Yrotation Zrotation
		JOINT RightLeg
		{
			OFFSET 0.00000 -16.90780 0.00000
			CHANNELS 3 Xrotation Yrotation Zrotation
			JOINT RightFoot
			{
				OFFSET 0.00000 -17.38735 0.00000
				CHANNELS 3 Xrotation Yrotation Zrotation
				JOINT RightToeBase
				{
					OFFSET 0.00000 -1.27464 4.75702
					CHANNELS 3 Xrotation Yrotation Zrotation
					End Site
					{
						OFFSET 0.00000 0.00000 2.95275
					}
				}
			}
		}
	}
}
MOTION
Frames: 7
Frame Time: 0.008333
 19.2284 35.4639 -23.9234 173.1436 -0.9290 178.7793 -16.7670 -0.4869 0.4067 6.9740 -0.4041 2.4447 -37.2548 -0.1586 17.8195 4.3037 -5.9611 -6.4153 -0.0000 0.2685 17.4341 1.1576 5.3618 -12.2018 33.1476 26.2537 -0.0000 6.6043 -14.1008 -9.7706 -43.3495 4.1048 7.3762 -0.0000 6.5398 39.1577 0.7581 -3.6053 11.8838 32.8623 -24.3270 0.0000 1.5102 7.3823 1.2463 -5.6767 0.0000 -0.0000 -20.0651 28.9627 6.2803 26.7228 -0.0000 0.0000 0.9150 -10.9788 0.5051 -3.0940 0.0000 -0.0000 -18.8750 -29.1649 -3.4825 23.8774 -0.0000 0.0000
 19.2280 35.4634 -23.9241 173.1394 -0.9284 178.7834 -16.7630 -0.4760 0.4009 6.9624 -0.4275 2.4568 -37.2687 -0.1750 17.8261 4.3251 -5.9511 -6.4179 0.0000 0.2673 17.3972 1.1516 5.3382 -12.1926 33.1476 26.2537 0.0000 6.6092 -14.1078 -9.7653 -43.3502 4.1116 7.3732 -0.0000 6.5266 39.1289 0.7612 -3.6276 11.8588 32.8623 -24.3270 -0.0000 1.5066 7.3992 1.2401 -5.6762 -0.0000 -0.0000 -20.0700 28.9596 6.2826 26.7497 0.0000 -0.0000 0.9099 -10.9753 0.4889 -3.0722 0.0000 0.0000 -18.8714 -29.0651 -3.4882 23.8121 -0.0000 0.0000
 19.2273 35.4637 -23.9255 173.1343 -0.9457 178.7840 -16.7673 -0.4692 0.3949 6.9750 -0.4701 2.4733 -37.2755 -0.1979 17.8212 4.3155 -5.9411 -6.4227 0.0000 0.2553 17.4285 1.1573 5.3554 -12.2134 33.1476 26.2537 -0.0000 6.5948 -14.1193 -9.7519 -43.3137 4.1365 7.3527 -0.0000 6.4978 39.1094 0.7505 -3.5834 11.8374 32.8623 -24.3270 -0.0000 1.5079 7.3722 1.2375 -5.6865 0.0000 -0.0000 -20.0547 28.9685 6.2772 26.7005 -0.0000 -0.0000 0.9189 -10.9905 0.4911 -3.0919 -0.0000 -0.0000 -18.8625 -29.0802 -3.4899 23.7867 0.0000 -0.0000
 19.2270 35.4636 -23.9257 173.1296 -0.9507 178.7826 -16.7612 -0.4725 0.3982 6.9742 -0.4817 2.4761 -37.2710 -0.1875 17.8206 4.3171 -5.9492 -6.4131 -0.0000 0.2655 17.4046 1.1548 5.3415 -12.2178 33.1476 26.2537 -0.0000 6.5860 -14.1221 -9.7603 -43.3176 4.1368 7.3619 -0.0000 6.5044 39.1171 0.7574 -3.6144 11.8437 32.8623 -24.3270 0.0000 1.5023 7.3801 1.2384 -5.6860 0.0000 0.0000 -20.0557 28.9552 6.2825 26.6957 -0.0000 0.0000 0.9183 -10.9837 0.4938 -3.0952 -0.0000 -0.0000 -18.8631 -29.0935 -3.4722 23.8153 -0.0000 -0.0000
 19.2282 35.4636 -23.9259 173.1205 -0.9562 178.7785 -16.7622 -0.4715 0.3957 6.9736 -0.4878 2.4981 -37.2611 -0.1805 17.8362 4.2731 -5.9626 -6.4256 -0.0000 0.2742 17.4256 1.1556 5.3471 -12.2135 33.1476 26.2537 0.0000 6.5903 -14.1298 -9.7458 -43.3351 4.1480 7.3546 0.0000 6.5258 39.0752 0.7733 -3.6754 11.8908 32.8623 -24.3270 0.0000 1.4944 7.3814 1.2449 -5.6915 0.0000 0.0000 -20.0519 28.9468 6.2710 26.7285 0.0000 -0.0000 0.9118 -10.9916 0.5101 -3.1173 -0.0000 -0.0000 -18.8726 -29.1772 -3.4998 23.8047 -0.0000 0.0000
 19.2277 35.4633 -23.9261 173.1173 -0.9635 178.7799 -16.7541 -0.4707 0.3940 6.9716 -0.4841 2.5038 -37.2873 -0.2004 17.8335 4.3068 -5.9501 -6.4161 -0.0000 0.2780 17.4102 1.1552 5.3382 -12.2296 33.1476 26.2537 -0.0000 6.5876 -14.1322 -9.7518 -43.3754 4.1384 7.3579 -0.0000 6.5170 39.0958 0.7668 -3.6442 11.8907 32.8623 -24.3270 -0.0000 1.4922 7.3740 1.2411 -5.6918 -0.0000 -0.0000 -20.0527 28.9498 6.2723 26.7114 0.0000 -0.0000 0.9071 -10.9870 0.4970 -3.0924 0.0000 0.0000 -18.8797 -29.1123 -3.5001 23.8801 0.0000 0.0000
 19.2274 35.4634 -23.9270 173.1144 -0.9774 178.7793 -16.7479 -0.4781 0.3905 6.9708 -0.4743 2.5166 -37.2961 -0.2061 17.8434 4.3138 -5.9459 -6.4214 0.0000 0.2835 17.3899 1.1558 5.2975 -12.3261 33.1476 26.2537 -0.0000 6.5810 -14.1330 -9.7491 -43.3562 4.1402 7.3508 0.0000 6.5207 39.0776 0.7652 -3.6453 11.8633 32.8623 -24.3270 0.0000 1.4896 7.3658 1.2408 -5.6947 -0.0000 -0.0000 -20.0520 28.9532 6.2732 26.7060 -0.0000 0.0000 0.9090 -11.0010 0.4980 -3.0970 -0.0000 -0.0000 -18.8773 -29.1067 -3.4995 23.8512 0.0000 -0.0000
